<?xml version="1.0" encoding="UTF-8" standalone="no"?>
<!DOCTYPE svg PUBLIC "-//W3C//DTD SVG 1.1//EN" "http://www.w3.org/Graphics/SVG/1.1/DTD/svg11.dtd">
<svg width="100%" height="100%" viewBox="0 0 1569 674" version="1.1" xmlns="http://www.w3.org/2000/svg" xmlns:xlink="http://www.w3.org/1999/xlink" xml:space="preserve" xmlns:serif="http://www.serif.com/" style="fill-rule:evenodd;clip-rule:evenodd;stroke-linejoin:round;stroke-miterlimit:2;">
    <g transform="matrix(1,0,0,1,-530.7,-323.737)">
        <g transform="matrix(4.16667,0,0,4.16667,0,0)">
            <g transform="matrix(1,0,0,1,157.309,196.255)">
                <path d="M0,25.038L-15.468,-16.963L-29.941,-16.963L-29.941,42.001L-19.544,42.001L-19.544,-0.581L-4.325,41.167L3.579,41.167L18.882,-0.084L18.882,42.001L29.279,42.001L29.279,-16.963L15.555,-16.963L0,25.038Z" style="fill:rgb(21,21,16);fill-rule:nonzero;"/>
            </g>
        </g>
        <g transform="matrix(4.16667,0,0,4.16667,0,0)">
            <g transform="matrix(1,0,0,1,211.416,200.246)">
                <path d="M0,17.054L8.397,-7.816L16.802,17.054L0,17.054ZM2.745,-20.955L-17.964,38.009L-7.151,38.009L-3.327,26.698L20.128,26.698L23.952,38.009L35.179,38.009L14.47,-20.955L2.745,-20.955Z" style="fill:rgb(21,21,16);fill-rule:nonzero;"/>
            </g>
        </g>
        <g transform="matrix(4.16667,0,0,4.16667,0,0)">
            <g transform="matrix(1,0,0,1,261.33,217.664)">
                <path d="M0,-17.789C0.245,-19.316 0.651,-20.772 1.205,-22.159C1.758,-23.546 2.535,-24.765 3.53,-25.815C4.7,-27.09 6.065,-28.063 7.648,-28.729C9.231,-29.394 10.877,-29.723 12.6,-29.723C14.428,-29.723 16.129,-29.422 17.712,-28.813C19.295,-28.203 20.556,-27.286 21.494,-26.067C22.272,-25.122 22.881,-24.169 23.329,-23.196C23.77,-22.229 24.044,-21.102 24.156,-19.827L35.137,-19.827C34.857,-22.159 34.276,-24.428 33.386,-26.649C32.504,-28.869 31.201,-30.865 29.478,-32.637C27.265,-34.913 24.681,-36.615 21.746,-37.749C18.805,-38.891 15.758,-39.458 12.6,-39.458C9.434,-39.458 6.429,-38.919 3.572,-37.833C0.714,-36.755 -1.849,-35.074 -4.118,-32.805C-5.729,-31.194 -7.018,-29.506 -7.984,-27.727C-8.958,-25.955 -9.693,-24.071 -10.19,-22.075C-10.687,-20.079 -11.024,-17.985 -11.192,-15.793C-11.353,-13.608 -11.437,-11.29 -11.437,-8.852C-11.437,-6.464 -11.353,-4.167 -11.192,-1.947C-11.024,0.273 -10.687,2.375 -10.19,4.371C-9.693,6.367 -8.958,8.258 -7.984,10.029C-7.018,11.801 -5.729,13.496 -4.118,15.1C-1.849,17.376 0.714,19.036 3.572,20.094C6.429,21.144 9.434,21.669 12.6,21.669C15.758,21.669 18.805,21.074 21.746,19.884C24.681,18.693 27.265,16.956 29.478,14.687C31.201,12.915 32.504,10.905 33.386,8.657C34.276,6.409 34.857,4.125 35.137,1.793L24.156,1.793C23.938,4.237 23.049,6.395 21.494,8.279C20.556,9.504 19.295,10.429 17.712,11.066C16.129,11.703 14.428,12.025 12.6,12.025C10.877,12.025 9.231,11.689 7.648,11.024C6.065,10.359 4.7,9.392 3.53,8.118C2.535,7.06 1.758,5.841 1.205,4.455C0.651,3.068 0.245,1.618 0,0.091C-0.252,-1.435 -0.406,-2.976 -0.462,-4.524C-0.518,-6.079 -0.546,-7.522 -0.546,-8.852C-0.546,-10.183 -0.518,-11.626 -0.462,-13.174C-0.406,-14.728 -0.252,-16.269 0,-17.789" style="fill:rgb(21,21,16);fill-rule:nonzero;"/>
            </g>
        </g>
        <g transform="matrix(4.16667,0,0,4.16667,0,0)">
            <g transform="matrix(1,0,0,1,316.393,238.256)">
                <path d="M0,-58.964L-10.73,-58.964L-10.73,0L27.363,0L27.363,-10.149L0,-10.149L0,-58.964Z" style="fill:rgb(21,21,16);fill-rule:nonzero;"/>
            </g>
        </g>
        <g transform="matrix(4.16667,0,0,4.16667,0,0)">
            <g transform="matrix(1,0,0,1,351.383,179.291)">
                <path d="M0,58.964L42.001,58.964L42.001,49.236L10.73,49.236L10.73,33.1L38.261,33.1L38.261,23.448L10.73,23.448L10.73,9.728L42.001,9.728L42.001,0L0,0L0,58.964Z" style="fill:rgb(21,21,16);fill-rule:nonzero;"/>
            </g>
        </g>
        <g transform="matrix(4.16667,0,0,4.16667,0,0)">
            <g transform="matrix(1,0,0,1,414.647,200.246)">
                <path d="M0,17.054L8.397,-7.816L16.802,17.054L0,17.054ZM2.745,-20.955L-17.964,38.009L-7.151,38.009L-3.327,26.698L20.129,26.698L23.952,38.009L35.179,38.009L14.47,-20.955L2.745,-20.955Z" style="fill:rgb(21,21,16);fill-rule:nonzero;"/>
            </g>
        </g>
        <g transform="matrix(4.16667,0,0,4.16667,0,0)">
            <g transform="matrix(1,0,0,1,493.291,238.256)">
                <path d="M0,-58.964L0,-19.043L-25.199,-58.964L-36.594,-58.964L-36.594,0L-26.025,0L-26.025,-40.502L-0.497,0L10.569,0L10.569,-58.964L0,-58.964Z" style="fill:rgb(21,21,16);fill-rule:nonzero;"/>
            </g>
        </g>
        <g transform="matrix(4.16667,0,0,4.16667,0,0)">
            <g transform="matrix(1,0,0,1,131.541,156.467)">
                <path d="M0,-48.709L14.682,-48.709C19.23,-48.709 23,-47.29 25.997,-44.452C28.351,-42.209 29.888,-39.412 30.611,-36.067C31.331,-32.729 31.692,-28.837 31.692,-24.398C31.692,-19.959 31.331,-16.067 30.611,-12.723C29.888,-9.378 28.351,-6.554 25.997,-4.257C23,-1.419 19.23,-0.007 14.682,-0.007L0,-0.007L0,-48.709ZM29.047,-1.527C31.882,-4.257 33.74,-7.493 34.621,-11.236C35.503,-14.98 35.946,-19.365 35.946,-24.398C35.946,-29.371 35.503,-33.729 34.621,-37.473C33.74,-41.216 31.882,-44.452 29.047,-47.182C25.196,-50.925 20.405,-52.797 14.682,-52.797L-4.172,-52.797L-4.172,4.088L14.682,4.088C20.405,4.088 25.196,2.216 29.047,-1.527" style="fill:rgb(21,21,16);fill-rule:nonzero;"/>
            </g>
        </g>
        <g transform="matrix(4.16667,0,0,4.16667,0,0)">
            <g transform="matrix(1,0,0,1,233.702,154.063)">
                <path d="M0,-43.899L32.976,6.493L37.709,6.493L37.709,-50.392L33.618,-50.392L33.618,-0.088L0.561,-50.392L-4.172,-50.392L-4.172,6.493L0,6.493L0,-43.899Z" style="fill:rgb(21,21,16);fill-rule:nonzero;"/>
            </g>
        </g>
        <g transform="matrix(4.16667,0,0,4.16667,0,0)">
            <g transform="matrix(-1,0,0,1,581.679,-72.433)">
                <rect x="288.713" y="176.103" width="4.253" height="56.885" style="fill:rgb(21,21,16);"/>
            </g>
        </g>
        <g transform="matrix(4.16667,0,0,4.16667,0,0)">
            <g transform="matrix(1,0,0,1,346.715,107.685)">
                <path d="M0,48.857L-32.175,48.857L-32.175,24.871L-3.851,24.871L-3.851,20.857L-32.175,20.857L-32.175,-0.008L0,-0.008L0,-4.014L-36.429,-4.014L-36.429,52.871L0,52.871L0,48.857Z" style="fill:rgb(21,21,16);fill-rule:nonzero;"/>
            </g>
        </g>
        <g transform="matrix(4.16667,0,0,4.16667,0,0)">
            <g transform="matrix(1,0,0,1,393.384,107.603)">
                <path d="M0,49.02L-29.527,49.02L-29.527,-3.932L-33.699,-3.932L-33.699,52.952L0,52.952L0,49.02Z" style="fill:rgb(21,21,16);fill-rule:nonzero;"/>
            </g>
        </g>
        <g transform="matrix(4.16667,0,0,4.16667,0,0)">
            <g transform="matrix(1,0,0,1,196.505,77.6968)">
                <path d="M0,11.241C3.104,11.241 5.621,8.725 5.621,5.62C5.621,2.516 3.104,0 0,0C-3.104,0 -5.621,2.516 -5.621,5.62C-5.621,8.725 -3.104,11.241 0,11.241" style="fill:rgb(21,21,16);fill-rule:nonzero;"/>
            </g>
        </g>
        <g transform="matrix(4.16667,0,0,4.16667,0,0)">
            <g transform="matrix(1,0,0,1,177.09,102.757)">
                <path d="M0,57.798L19.257,6.69L38.912,57.798L43.165,57.798L22.562,4.094L37.63,4.094L37.63,0L1.201,0L1.201,4.094L16.043,4.094L-4.334,57.798L0,57.798Z" style="fill:rgb(21,21,16);fill-rule:nonzero;"/>
            </g>
        </g>
    </g>
</svg>
